<svg width="13" height="12" viewBox="0 0 13 12" fill="none" xmlns="http://www.w3.org/2000/svg">
<path d="M6.10916 7.83903L3.04874 5.00903C2.99797 4.96255 2.95768 4.90725 2.93018 4.84632C2.90268 4.78539 2.88852 4.72004 2.88852 4.65403C2.88852 4.58803 2.90268 4.52267 2.93018 4.46175C2.95768 4.40082 2.99797 4.34552 3.04874 4.29903C3.15023 4.20591 3.28752 4.15364 3.43062 4.15364C3.57372 4.15364 3.71101 4.20591 3.81249 4.29903L6.52083 6.77403L9.20208 4.29903C9.30356 4.20591 9.44085 4.15364 9.58395 4.15364C9.72705 4.15364 9.86434 4.20591 9.96583 4.29903C10.017 4.34534 10.0577 4.40056 10.0856 4.4615C10.1135 4.52244 10.128 4.58788 10.1283 4.65403C10.128 4.72019 10.1135 4.78563 10.0856 4.84657C10.0577 4.9075 10.017 4.96273 9.96583 5.00903L6.90541 7.83903C6.85469 7.88979 6.79313 7.93029 6.72461 7.95799C6.65608 7.9857 6.58209 8 6.50728 8C6.43248 8 6.35849 7.9857 6.28996 7.95799C6.22144 7.93029 6.15988 7.88979 6.10916 7.83903Z" fill="white"/>
</svg>
