<svg width="31" height="33" viewBox="0 0 31 33" fill="none" xmlns="http://www.w3.org/2000/svg">
<path d="M20.2921 17.4762C21.5584 16.4156 22.4827 14.9613 22.9364 13.3154C23.3901 11.6696 23.3506 9.9141 22.8235 8.29326C22.2963 6.67241 21.3077 5.26678 19.9951 4.27191C18.6825 3.27705 17.1113 2.74243 15.5 2.74243C13.8887 2.74243 12.3175 3.27705 11.0049 4.27191C9.69234 5.26678 8.7037 6.67241 8.17653 8.29326C7.64936 9.9141 7.60987 11.6696 8.06357 13.3154C8.51727 14.9613 9.44158 16.4156 10.7079 17.4762C8.53802 18.4017 6.64471 19.9366 5.22982 21.9174C3.81494 23.8982 2.93152 26.2505 2.67375 28.7237C2.65509 28.9043 2.67003 29.087 2.7177 29.2614C2.76538 29.4359 2.84486 29.5986 2.95161 29.7403C3.16719 30.0265 3.48077 30.2099 3.82334 30.25C4.16591 30.2901 4.50942 30.1837 4.7783 29.9542C5.04718 29.7247 5.2194 29.3909 5.25709 29.0262C5.54072 26.3384 6.74468 23.856 8.63895 22.0533C10.5332 20.2507 12.985 19.2542 15.5258 19.2542C18.0667 19.2542 20.5184 20.2507 22.4127 22.0533C24.307 23.856 25.511 26.3384 25.7946 29.0262C25.8297 29.3641 25.9811 29.6761 26.2197 29.9021C26.4582 30.1281 26.7669 30.2521 27.0863 30.25H27.2283C27.5669 30.2085 27.8764 30.0263 28.0893 29.743C28.3022 29.4596 28.4013 29.0982 28.365 28.7375C28.106 26.2573 27.2178 23.8988 25.7957 21.915C24.3735 19.9312 22.471 18.3968 20.2921 17.4762ZM15.5 16.5C14.4781 16.5 13.4792 16.1774 12.6296 15.5731C11.7799 14.9687 11.1177 14.1097 10.7266 13.1047C10.3356 12.0998 10.2333 10.9939 10.4326 9.92699C10.632 8.8601 11.124 7.88009 11.8466 7.1109C12.5692 6.34171 13.4898 5.81789 14.492 5.60567C15.4943 5.39345 16.5331 5.50237 17.4772 5.91865C18.4213 6.33493 19.2282 7.03988 19.7959 7.94435C20.3636 8.84882 20.6667 9.91219 20.6667 11C20.6667 12.4587 20.1223 13.8576 19.1534 14.8891C18.1845 15.9205 16.8703 16.5 15.5 16.5Z" fill="white"/>
</svg>
