<svg width="31" height="31" viewBox="0 0 31 31" fill="none" xmlns="http://www.w3.org/2000/svg">
<path d="M28.0421 26.2079L23.25 21.4546C25.1101 19.1353 26.0109 16.1914 25.7672 13.2283C25.5235 10.2653 24.1537 7.50818 21.9396 5.524C19.7255 3.53982 16.8353 2.47937 13.8634 2.56069C10.8914 2.64201 8.06351 3.85893 5.96122 5.96122C3.85893 8.06351 2.64201 10.8914 2.56069 13.8634C2.47937 16.8353 3.53982 19.7255 5.524 21.9396C7.50818 24.1537 10.2653 25.5235 13.2283 25.7672C16.1914 26.0109 19.1353 25.1101 21.4546 23.25L26.2079 28.0033C26.328 28.1244 26.4709 28.2205 26.6283 28.2861C26.7857 28.3516 26.9545 28.3854 27.125 28.3854C27.2955 28.3854 27.4643 28.3516 27.6217 28.2861C27.7791 28.2205 27.922 28.1244 28.0421 28.0033C28.2749 27.7625 28.405 27.4406 28.405 27.1056C28.405 26.7706 28.2749 26.4488 28.0421 26.2079ZM14.2083 23.25C12.4201 23.25 10.6719 22.7197 9.18505 21.7262C7.69816 20.7327 6.53926 19.3206 5.85492 17.6684C5.17058 16.0163 4.99152 14.1983 5.3404 12.4444C5.68927 10.6905 6.55041 9.07941 7.81491 7.81491C9.07941 6.55041 10.6905 5.68927 12.4444 5.3404C14.1983 4.99152 16.0163 5.17058 17.6684 5.85492C19.3206 6.53926 20.7327 7.69816 21.7262 9.18505C22.7197 10.6719 23.25 12.4201 23.25 14.2083C23.25 16.6063 22.2974 18.9061 20.6018 20.6018C18.9061 22.2974 16.6063 23.25 14.2083 23.25Z" fill="white"/>
</svg>
